# xmcd
#
# Track frame offsets: 
#        150
#        19300
#        31350
#        46475
#        74100
#        86170
#        104100
#        137550
#        154525
#        173058
#        204379
#        218561
#        231680
#        247623
#        259261
#        290754
#        301632
#
# Disc length: 4355 seconds
#
# Revision: 0
# Processed by: cddbd v1.5.2PL0 Copyright (c) Steve Scherf et al.
# Submitted via: ExactAudioCopyFreeDBPlugin 1.0
#
DISCID=f8110111
DTITLE=Livin' Blues - Bamboozle and Rocking At The Tweed Mill 
DYEAR=1900
DGENRE=Blues
TTITLE0=L.B.Boogie
TTITLE1=Sunrise
TTITLE2=Keep On
TTITLE3=Hitch-Hikin'
TTITLE4=Bamboozle Song
TTITLE5=Overture
TTITLE6=Black Night
TTITLE7=Big City Man
TTITLE8=Ain't No Use Crying
TTITLE9=Diving Duck Blues
TTITLE10=Eye To Eye
TTITLE11=Please Don't Leave Me
TTITLE12=Sweet Suzanne
TTITLE13=Shady Girl, Shady Girl
TTITLE14=Fool On You
TTITLE15=Tongue 'n' Groove
TTITLE16=You're A Stranger
EXTD=
EXTT0=
EXTT1=
EXTT2=
EXTT3=
EXTT4=
EXTT5=
EXTT6=
EXTT7=
EXTT8=
EXTT9=
EXTT10=
EXTT11=
EXTT12=
EXTT13=
EXTT14=
EXTT15=
EXTT16=
PLAYORDER=
